<?xml version="1.0" encoding="utf-8"?>
<!-- Generator: Adobe Illustrator 16.0.0, SVG Export Plug-In . SVG Version: 6.00 Build 0)  -->
<!DOCTYPE svg PUBLIC "-//W3C//DTD SVG 1.1//EN" "http://www.w3.org/Graphics/SVG/1.1/DTD/svg11.dtd">
<svg version="1.1" id="Layer_1" xmlns="http://www.w3.org/2000/svg" xmlns:xlink="http://www.w3.org/1999/xlink" x="0px" y="0px"
	 width="200px" height="200px" viewBox="0 0 200 200" enable-background="new 0 0 200 200" xml:space="preserve">
<g>
	<g transform="scale(0.1953125, 0.1953125)">
		<path fill="#33BBFF" d="M0,511.999c0,282.769,229.229,511.999,511.999,511.999s511.999-229.229,511.999-511.999
			S794.768,0,511.999,0S0,229.229,0,511.999z M429.439,722.558c-8.32,0-16.64-3.2-22.4-9.6l-192.64-192
			c-12.8-12.8-12.8-32.64,0-45.44c12.8-12.8,32.64-12.8,45.44,0l169.6,169.6l314.879-314.879c12.8-12.8,32.64-12.8,45.44,0
			s12.8,32.64,0,45.44L452.479,712.958C446.079,719.358,437.759,722.558,429.439,722.558z"/>
	</g>
</g>
</svg>
