<?xml version="1.0" encoding="utf-8"?>
<!-- Generator: Adobe Illustrator 16.0.0, SVG Export Plug-In . SVG Version: 6.00 Build 0)  -->
<!DOCTYPE svg PUBLIC "-//W3C//DTD SVG 1.1//EN" "http://www.w3.org/Graphics/SVG/1.1/DTD/svg11.dtd">
<svg version="1.1" id="Layer_1" xmlns="http://www.w3.org/2000/svg" xmlns:xlink="http://www.w3.org/1999/xlink" x="0px" y="0px"
	 width="200px" height="200px" viewBox="0 0 200 200" enable-background="new 0 0 200 200" xml:space="preserve">
<rect fill="#333333" width="200" height="200"/>
<g>
	<g transform="scale(0.1953125, 0.1953125)">
		<path fill="#FFFFFF" d="M508.284,958.088c-3.53-5.07-6.57-10.58-10.67-15.14c-36.485-40.61-73.177-81.05-109.757-121.59
			c-4.145-4.59-7.962-9.47-14.475-17.27c30.16,0,56.942,0,84.762,0c0-80.94,0-159.58,0-239.364c-79.052,0-157.632,0-238.174,0
			c0,27.835,0,54.75,0,86.42c-53.13-47.945-102.8-92.76-154.077-139.037c50.927-46.077,100.61-91.022,153.492-138.865
			c0,29.592,0,55.222,0,82.13c80.707,0,159.275,0,238.844,0c0-77.945,0-155.462,0-235.237c-27.405,0-54.247,0-85.902,0
			c48.157-53.342,92.987-103.007,139.23-154.222c46.192,51.167,91.052,100.855,139.082,154.062c-30.755,0-57,0-84.345,0
			c0,79.707,0,157.185,0,235.689c78.87,0,156.975,0,236.934,0c0-26.495,0-52.342,0-83.585
			c53.69,48.535,103.66,93.705,154.88,139.995c-51.18,46.195-100.91,91.095-153.84,138.875c0-30.84,0-57.66,0-85.9
			c-80.09,0-158.13,0-237.949,0c-0.37,4.5-1.145,9.45-1.15,14.4c-0.08,69.13,0.39,138.26-0.41,207.38
			c-0.17,14.71,5.26,17.57,18.19,17.05c20.85-0.85,41.76-0.23,68.19-0.23c-48.39,53.63-93.88,104.03-139.365,154.44
			C510.604,958.088,509.449,958.088,508.284,958.088z"/>
	</g>
</g>
</svg>
