<?xml version="1.0" encoding="utf-8"?>
<!-- Generator: Adobe Illustrator 16.0.0, SVG Export Plug-In . SVG Version: 6.00 Build 0)  -->
<!DOCTYPE svg PUBLIC "-//W3C//DTD SVG 1.1//EN" "http://www.w3.org/Graphics/SVG/1.1/DTD/svg11.dtd">
<svg version="1.1" id="Layer_1" xmlns="http://www.w3.org/2000/svg" xmlns:xlink="http://www.w3.org/1999/xlink" x="0px" y="0px"
	 width="200px" height="200px" viewBox="0 0 200 200" enable-background="new 0 0 200 200" xml:space="preserve">
<g>
	<g transform="scale(0.1953125, 0.1953125)">
		<path fill="#33BBFF" d="M509.424,110.012c53.935,0,106.235,10.552,155.44,31.365c47.555,20.112,90.265,48.915,126.96,85.607
			c36.695,36.692,65.495,79.407,85.605,126.96c20.82,49.205,31.37,101.505,31.37,155.44s-10.555,106.235-31.37,155.44
			c-20.11,47.555-48.91,90.265-85.605,126.96c-36.695,36.695-79.405,65.495-126.96,85.605
			c-49.205,20.815-101.505,31.37-155.44,31.37s-106.232-10.555-155.44-31.37c-47.552-20.11-90.265-48.91-126.96-85.605
			c-36.692-36.695-65.495-79.405-85.607-126.96c-20.812-49.205-31.365-101.505-31.365-155.44s10.552-106.232,31.365-155.44
			c20.112-47.552,48.915-90.267,85.607-126.96c36.695-36.692,79.407-65.495,126.96-85.607
			C403.191,120.565,455.489,110.012,509.424,110.012 M509.424,63.962c-245.999,0-445.419,199.422-445.419,445.421
			s199.42,445.419,445.419,445.419s445.424-199.419,445.424-445.419S755.423,63.962,509.424,63.962L509.424,63.962z"/>
	</g>
</g>
</svg>
